:SAMPLES-PER-SECOND 30
:FULLY-SPECIFIED
:DEGREES
143
root  -37.0013 38.3436 9.16599 -81.7243 -86.2637 71.2859
RightUpLeg  -13.7179 -11.2737 -11.0895
RightLeg  -1.90047 3.90602 -0.89258
RightFoot  -4.27262 -0.467333 7.18632
RightToes  -1.33073e-015 0 -3.6325e-017
Spine  7.24882 -2.04409 -3.82345
Spine1  11.9357 -2.85265 1.17566
HEad  -12.2043 0.299988 -2.77375
LeftShoulder1  0.122636 3.17296 -30.9172
LeftArm  2.45129 -17.1202 -42.0175
LeftForeArm  15.6367 -30.6796 -5.8344
LeftHand  -0.155248 1.71435 4.69213
RightShoulder  -0.393601 -4.72539 25.2112
RightArm  -8.31038 -7.77311 40.1632
RightForeArm  11.8902 60.0046 18.8053
RightHand  -0.638283 4.28535 -7.92841
LeftUpLeg  16.3054 -1.35436 -8.88813
LeftLeg  18.9555 -3.5099 -0.52064
LeftFoot  -22.352 1.06904 9.6873
LeftToes  -1.03319e-009 7.52634e-011 -3.26162e-012
144
root  -38.3234 38.0541 8.66364 -72.244 -86.6376 61.8651
RightUpLeg  -15.7106 -11.2184 -9.94325
RightLeg  4.43717 1.59508 0.0662388
RightFoot  0.894641 -0.39333 3.90052
RightToes  -1.33073e-015 0 -3.6325e-017
Spine  7.15879 -2.03325 -1.93152
Spine1  12.1965 -2.5074 0.566267
HEad  -11.8689 -0.838642 -2.81173
LeftShoulder1  0.180935 3.01395 -30.8143
LeftArm  0.541633 -20.8079 -41.4439
LeftForeArm  16.2727 -32.8661 -6.34231
LeftHand  -0.152891 1.63724 4.54198
RightShoulder  -0.317045 -4.52665 23.9241
RightArm  -10.1748 -2.36375 40.1813
RightForeArm  12.7759 61.5745 20.1219
RightHand  -0.636928 4.8263 -7.51348
LeftUpLeg  17.4208 -3.03671 -7.94399
LeftLeg  21.3819 -2.40772 -0.743259
LeftFoot  -24.2945 1.07375 8.14153
LeftToes  -1.03319e-009 7.52634e-011 -3.26162e-012
145
root  -39.6612 37.8082 8.1707 -51.1859 -87.304 40.542
RightUpLeg  -17.2797 -11.7995 -8.48519
RightLeg  10.1818 3.17133 0.944118
RightFoot  9.46674 -0.483389 2.89547
RightToes  -1.33073e-015 0 -3.6325e-017
Spine  7.43366 -2.42266 1.0293
Spine1  12.576 -2.25538 -0.677494
HEad  -12.2966 -0.852416 -2.52199
LeftShoulder1  0.223905 2.88242 -29.9454
LeftArm  -1.44997 -24.2269 -40.9841
LeftForeArm  15.4477 -34.419 -6.79628
LeftHand  -0.161964 1.65518 4.8235
RightShoulder  -0.320976 -4.54159 23.8362
RightArm  -10.9642 4.37585 39.5195
RightForeArm  11.7624 61.8961 20.5546
RightHand  -0.726296 4.62787 -8.69855
LeftUpLeg  18.0853 -3.82656 -6.01611
LeftLeg  25.4544 -2.67103 -1.06161
LeftFoot  -25.1976 0.827379 5.64022
LeftToes  -1.03319e-009 7.52634e-011 -3.26162e-012
146
root  -40.9974 37.4431 7.71372 -2.30884 -87.3463 -8.86577
RightUpLeg  -18.6346 -13.2268 -6.2077
RightLeg  17.6541 4.40708 1.57257
RightFoot  10.1555 -0.73233 4.21229
RightToes  -1.33073e-015 0 -3.6325e-017
Spine  7.49097 -3.03734 5.26558
Spine1  13.6181 -1.96668 -2.31165
HEad  -12.4681 -0.991631 -2.90206
LeftShoulder1  0.371909 2.46467 -29.6274
LeftArm  -3.79568 -27.7057 -41.1888
LeftForeArm  14.9968 -35.3989 -7.08968
LeftHand  -0.210288 0.822596 5.30859
RightShoulder  -0.188542 -4.12042 22.7654
RightArm  -12.8466 11.2411 39.6367
RightForeArm  10.5246 60.9493 19.7916
RightHand  -0.771901 4.37929 -9.46885
LeftUpLeg  16.523 -4.11267 -2.44133
LeftLeg  34.3704 -3.98979 -2.62756
LeftFoot  -25.0284 0.18551 0.146313
LeftToes  -1.03319e-009 7.52634e-011 -3.26162e-012
147
root  -42.1552 37.1735 7.22559 36.5089 -86.1796 -47.5313
RightUpLeg  -20.5086 -13.8923 -3.00505
RightLeg  24.3477 4.79353 2.09349
RightFoot  7.80959 -0.170637 1.32051
RightToes  -1.33073e-015 0 -3.6325e-017
Spine  8.8344 -3.29229 8.62516
Spine1  12.8097 -1.74771 -1.74844
HEad  -12.0858 -1.1435 -3.74169
LeftShoulder1  0.48899 2.1136 -29.1597
LeftArm  -5.24713 -30.4318 -41.6565
LeftForeArm  14.1465 -36.1388 -7.34613
LeftHand  -0.185799 1.46531 5.34488
RightShoulder  -0.0384073 -3.62139 21.1259
RightArm  -13.5476 17.6624 39.3854
RightForeArm  8.93002 59.2048 18.4638
RightHand  -0.758027 5.66644 -8.24663
LeftUpLeg  11.3259 -2.95553 2.44741
LeftLeg  46.4555 -4.57966 -4.69983
LeftFoot  -19.0959 -0.306159 -6.72607
LeftToes  -1.03319e-009 7.52634e-011 -3.26162e-012
148
root  -43.1147 37.0092 6.69209 37.7617 -83.6274 -48.3423
RightUpLeg  -21.4828 -14.6815 -0.749145
RightLeg  28.782 3.3552 1.76057
RightFoot  4.47975 0.0586912 -0.185858
RightToes  -1.33073e-015 0 -3.6325e-017
Spine  10.2258 -3.89759 10.4341
Spine1  12.1873 -2.10419 -0.895197
HEad  -12.9138 -1.45987 -3.1985
LeftShoulder1  0.704184 1.40407 -27.3601
LeftArm  -7.04132 -33.9784 -42.5824
LeftForeArm  14.1001 -36.0551 -7.32685
LeftHand  -0.177972 1.58533 5.25789
RightShoulder  0.0422233 -3.32018 20.816
RightArm  -14.5137 25.205 38.6232
RightForeArm  5.26081 56.1533 16.5412
RightHand  -0.82745 5.41309 -9.17878
LeftUpLeg  3.2751 -2.90263 6.09927
LeftLeg  58.9598 -2.62067 -3.96564
LeftFoot  -5.48829 0.335583 -7.91822
LeftToes  -1.03319e-009 7.52634e-011 -3.26162e-012
